<svg xmlns="http://www.w3.org/2000/svg" width="36" height="36" viewBox="0 0 36 36">
  <g id="Group_501" data-name="Group 501" transform="translate(-1202 -766)">
    <circle id="Ellipse_16" data-name="Ellipse 16" cx="18" cy="18" r="18" transform="translate(1202 766)" fill="#f4f4f4"/>
    <path id="Icon_awesome-google" data-name="Icon awesome-google" d="M17.156,9.2a8.1,8.1,0,0,1-8.437,8.515,8.719,8.719,0,0,1,0-17.437,8.385,8.385,0,0,1,5.846,2.282L12.192,4.845C9.088,1.849,3.315,4.1,3.315,9a5.461,5.461,0,0,0,5.4,5.505,4.715,4.715,0,0,0,4.95-3.758H8.719v-3h8.3A7.643,7.643,0,0,1,17.156,9.2Z" transform="translate(1210.995 774.719)"/>
  </g>
</svg>
