<svg xmlns="http://www.w3.org/2000/svg" width="36" height="36" viewBox="0 0 36 36">
  <g id="Group_502" data-name="Group 502" transform="translate(-1253 -766)">
    <circle id="Ellipse_17" data-name="Ellipse 17" cx="18" cy="18" r="18" transform="translate(1253 766)" fill="#f4f4f4"/>
    <path id="Icon_awesome-linkedin" data-name="Icon awesome-linkedin" d="M14.625,1.125H1.121A1.13,1.13,0,0,0,0,2.261V15.739a1.13,1.13,0,0,0,1.121,1.136h13.5a1.133,1.133,0,0,0,1.125-1.136V2.261A1.133,1.133,0,0,0,14.625,1.125ZM4.76,14.625H2.426V7.109H4.764v7.516ZM3.593,6.082A1.354,1.354,0,1,1,4.946,4.729,1.354,1.354,0,0,1,3.593,6.082Zm9.918,8.543H11.176V10.969c0-.872-.018-1.993-1.213-1.993-1.216,0-1.4.949-1.4,1.93v3.72H6.226V7.109H8.466V8.135H8.5a2.459,2.459,0,0,1,2.211-1.213c2.363,0,2.8,1.557,2.8,3.582Z" transform="translate(1263 774.875)"/>
  </g>
</svg>
