<svg xmlns="http://www.w3.org/2000/svg" width="36" height="36" viewBox="0 0 36 36">
  <g id="Group_500" data-name="Group 500" transform="translate(-1151 -766)">
    <circle id="Ellipse_15" data-name="Ellipse 15" cx="18" cy="18" r="18" transform="translate(1151 766)" fill="#f4f4f4"/>
    <path id="Icon_awesome-twitter" data-name="Icon awesome-twitter" d="M16.15,5.334c.011.16.011.32.011.48a10.424,10.424,0,0,1-10.5,10.5A10.425,10.425,0,0,1,0,14.654a7.632,7.632,0,0,0,.891.046,7.388,7.388,0,0,0,4.58-1.576,3.7,3.7,0,0,1-3.449-2.558,4.652,4.652,0,0,0,.7.057,3.9,3.9,0,0,0,.971-.126A3.69,3.69,0,0,1,.731,6.876V6.83A3.715,3.715,0,0,0,2.4,7.3,3.695,3.695,0,0,1,1.256,2.364a10.486,10.486,0,0,0,7.607,3.86,4.165,4.165,0,0,1-.091-.845,3.693,3.693,0,0,1,6.385-2.524A7.263,7.263,0,0,0,17.5,1.964,3.679,3.679,0,0,1,15.876,4,7.4,7.4,0,0,0,18,3.426a7.93,7.93,0,0,1-1.85,1.907Z" transform="translate(1160 775.31)"/>
  </g>
</svg>
