<svg xmlns="http://www.w3.org/2000/svg" width="36" height="36" viewBox="0 0 36 36">
  <g id="Group_499" data-name="Group 499" transform="translate(-1100 -766)">
    <circle id="Ellipse_14" data-name="Ellipse 14" cx="18" cy="18" r="18" transform="translate(1100 766)" fill="#f4f4f4"/>
    <g id="Icon_feather-instagram" data-name="Icon feather-instagram" transform="translate(1109.5 775.5)">
      <path id="Path_76" data-name="Path 76" d="M5.25,1.5h7.5A3.75,3.75,0,0,1,16.5,5.25v7.5a3.75,3.75,0,0,1-3.75,3.75H5.25A3.75,3.75,0,0,1,1.5,12.75V5.25A3.75,3.75,0,0,1,5.25,1.5Z" fill="none" stroke="#000" stroke-linecap="round" stroke-linejoin="round" stroke-width="1.5"/>
      <path id="Path_77" data-name="Path 77" d="M12,8.528A3,3,0,1,1,9.472,6,3,3,0,0,1,12,8.528Z" fill="none" stroke="#000" stroke-linecap="round" stroke-linejoin="round" stroke-width="1.5"/>
      <path id="Path_78" data-name="Path 78" d="M13.125,4.875h0" fill="none" stroke="#000" stroke-linecap="round" stroke-linejoin="round" stroke-width="1.5"/>
    </g>
  </g>
</svg>
